<?xml version="1.0" encoding="UTF-8"?>
<svg id="Capa_1" data-name="Capa 1" xmlns="http://www.w3.org/2000/svg" viewBox="0 0 124.43 61.34">
  <defs>
    <style>
      .cls-1 {
        fill: #faea26;
      }

      .cls-1, .cls-2, .cls-3 {
        stroke: #1d1d1b;
        stroke-miterlimit: 10;
        stroke-width: .75px;
      }

      .cls-2 {
        fill: #e52421;
      }

      .cls-3 {
        fill: #294b9b;
      }
    </style>
  </defs>
  <path class="cls-2" d="m39.86,42.79c-2.18,1.62-5.33,2.42-9.46,2.42-4.58,0-7.98-.96-10.22-2.88-2.24-1.92-3.65-4.82-4.22-8.69h-4.03v-3.12h3.7c-.03-.51-.05-1.33-.05-2.45l.05-1.97h-3.7v-3.12h3.94c.54-4.03,1.94-7.06,4.2-9.07s5.7-3.02,10.34-3.02c4.26,0,7.48.86,9.67,2.59,2.19,1.73,3.34,4.06,3.43,7.01h-4.7c-.1-1.66-.87-3.02-2.33-4.08s-3.48-1.58-6.07-1.58c-2.85,0-5.04.66-6.58,1.99-1.54,1.33-2.56,3.38-3.07,6.17h13.25v3.12h-13.58c-.03.42-.05,1.07-.05,1.97,0,.61.03,1.42.1,2.45h13.54v3.12h-13.15c.54,2.59,1.59,4.51,3.14,5.76,1.55,1.25,3.72,1.87,6.5,1.87,2.53,0,4.49-.46,5.88-1.39,1.39-.93,2.17-2.16,2.33-3.7h4.66c-.16,2.78-1.33,4.98-3.5,6.6Z"/>
  <path class="cls-1" d="m74.09,42.79c-2.18,1.62-5.33,2.42-9.46,2.42-4.58,0-7.98-.96-10.22-2.88-2.24-1.92-3.65-4.82-4.22-8.69h-4.03v-3.12h3.7c-.03-.51-.05-1.33-.05-2.45l.05-1.97h-3.7v-3.12h3.94c.54-4.03,1.94-7.06,4.2-9.07s5.7-3.02,10.34-3.02c4.26,0,7.48.86,9.67,2.59,2.19,1.73,3.34,4.06,3.43,7.01h-4.7c-.1-1.66-.87-3.02-2.33-4.08s-3.48-1.58-6.07-1.58c-2.85,0-5.04.66-6.58,1.99-1.54,1.33-2.56,3.38-3.07,6.17h13.25v3.12h-13.58c-.03.42-.05,1.07-.05,1.97,0,.61.03,1.42.1,2.45h13.54v3.12h-13.15c.54,2.59,1.59,4.51,3.14,5.76,1.55,1.25,3.72,1.87,6.5,1.87,2.53,0,4.49-.46,5.88-1.39,1.39-.93,2.17-2.16,2.33-3.7h4.66c-.16,2.78-1.33,4.98-3.5,6.6Z"/>
  <path class="cls-3" d="m108.31,42.79c-2.18,1.62-5.33,2.42-9.46,2.42-4.58,0-7.98-.96-10.22-2.88-2.24-1.92-3.65-4.82-4.22-8.69h-4.03v-3.12h3.7c-.03-.51-.05-1.33-.05-2.45l.05-1.97h-3.7v-3.12h3.94c.54-4.03,1.94-7.06,4.2-9.07s5.7-3.02,10.34-3.02c4.26,0,7.48.86,9.67,2.59,2.19,1.73,3.34,4.06,3.43,7.01h-4.7c-.1-1.66-.87-3.02-2.33-4.08s-3.48-1.58-6.07-1.58c-2.85,0-5.04.66-6.58,1.99-1.54,1.33-2.56,3.38-3.07,6.17h13.25v3.12h-13.58c-.03.42-.05,1.07-.05,1.97,0,.61.03,1.42.1,2.45h13.54v3.12h-13.15c.54,2.59,1.59,4.51,3.14,5.76,1.55,1.25,3.72,1.87,6.5,1.87,2.53,0,4.49-.46,5.88-1.39,1.39-.93,2.17-2.16,2.33-3.7h4.66c-.16,2.78-1.33,4.98-3.5,6.6Z"/>
</svg>