<svg width="1072" height="1071" viewBox="0 0 1072 1071" fill="none" xmlns="http://www.w3.org/2000/svg">
<path d="M188.396 157.579H79.9981L66.3985 440.686H171.196L165.996 555.531H61.1986L37.5991 1049.63H0L47.5989 42.7332H193.595L188.396 157.579Z" fill="#313131"/>
<path d="M359.217 797.241H220.82L174.421 1049.63H134.022L327.617 0L422.015 1049.63H381.616L359.217 797.241ZM349.217 682.395L314.818 275.095L242.019 682.395H349.217Z" fill="#313131"/>
<path d="M532.463 42.7332L490.464 934.788H582.061L576.462 1049.63H447.265L494.863 42.7332H532.463Z" fill="#313131"/>
<path d="M806.762 173.603L773.963 233.697C765.563 170.933 752.764 138.883 729.964 138.883C705.965 138.883 677.165 193.635 672.766 281.772C669.166 360.561 690.365 401.959 707.965 425.996L728.364 454.04C768.363 510.127 796.763 588.916 788.763 757.178C779.963 940.13 731.164 1071 677.165 1071C628.367 1071 596.367 950.813 597.567 789.228L636.766 762.52C631.166 873.359 653.566 953.484 685.965 953.484C718.364 953.484 745.964 862.676 751.164 757.178C756.364 649.01 732.364 602.271 707.965 566.214L688.765 536.835C656.766 487.425 628.367 421.99 635.166 281.772C642.766 118.852 690.765 21.3665 736.364 21.3665C769.963 21.3665 794.763 76.1184 806.762 173.603Z" fill="#313131"/>
<path d="M1009.2 797.241H870.805L824.406 1049.63H784.007L977.602 0L1072 1049.63H1031.6L1009.2 797.241ZM999.202 682.395L964.802 275.095L892.004 682.395H999.202Z" fill="#313131"/>
</svg>
