<svg width="1739" height="1071" viewBox="0 0 1739 1071" fill="none" xmlns="http://www.w3.org/2000/svg">
<path d="M85.176 46.9623L37.5894 1030.56H0L47.5866 46.9623H85.176Z" fill="#313131"/>
<path d="M90.5432 1030.56L140.529 0L329.276 773.572L364.466 46.9623H402.055L352.469 1071L163.723 297.428L128.133 1030.56H90.5432Z" fill="#313131"/>
<path d="M531.681 159.15L489.293 1030.56H451.704L494.092 159.15H422.512L427.711 46.9623H608.46L603.261 159.15H531.681Z" fill="#313131"/>
<path d="M590.487 1030.56L638.073 46.9623H800.027L794.829 159.15H670.464L656.868 434.401H777.634L772.435 546.588H651.669L633.674 918.373H758.039L752.441 1030.56H590.487Z" fill="#313131"/>
<path d="M912.19 602.682L986.569 1030.56H940.981L872.601 614.423H857.005L836.611 1030.56H799.021L846.608 46.9623H892.195C918.988 46.9623 947.779 48.2667 969.773 92.6199C992.567 140.887 1002.56 233.507 997.765 327.431C990.967 468.318 956.577 585.723 912.19 602.682ZM878.999 156.541L861.804 512.671H873.8C912.19 512.671 954.977 489.19 962.575 332.649C969.773 178.717 926.186 156.541 888.996 156.541H878.999Z" fill="#313131"/>
<path d="M1012.55 1030.56L1062.53 0L1251.28 773.572L1286.47 46.9623H1324.06L1274.47 1071L1085.73 297.428L1050.14 1030.56H1012.55Z" fill="#313131"/>
<path d="M1330.12 1030.56L1377.71 46.9623H1539.66L1534.46 159.15H1410.1L1396.5 434.401H1517.27L1512.07 546.588H1391.3L1373.31 918.373H1497.67L1492.08 1030.56H1330.12Z" fill="#313131"/>
<path d="M1662.22 159.15L1619.83 1030.56H1582.24L1624.63 159.15H1553.05L1558.25 46.9623H1739L1733.8 159.15H1662.22Z" fill="#313131"/>
</svg>
