<svg width="1866" height="1071" viewBox="0 0 1866 1071" fill="none" xmlns="http://www.w3.org/2000/svg">
<path d="M164.007 1051.43L106.405 380.916H105.605L38.8017 1030.56H0L111.205 5.21804L177.208 780.095L318.414 5.21804L330.414 1030.56H291.613L288.013 380.916H287.213L164.007 1051.43Z" fill="#313131"/>
<path d="M363.85 1030.56L411.452 46.9623H573.459L568.259 159.15H443.854L430.253 434.401H551.058L545.858 546.588H425.053L407.052 918.373H531.458L525.857 1030.56H363.85Z" fill="#313131"/>
<path d="M568.853 1030.56L618.855 0L807.663 773.572L842.865 46.9623H880.466L830.864 1071L642.056 297.428L606.454 1030.56H568.853Z" fill="#313131"/>
<path d="M1010.13 159.15L967.733 1030.56H930.131L972.533 159.15H900.93L906.13 46.9623H1086.94L1081.74 159.15H1010.13Z" fill="#313131"/>
<path d="M1152.96 46.9623L1105.36 1030.56H1067.76L1115.36 46.9623H1152.96Z" fill="#313131"/>
<path d="M1275.14 602.682L1349.54 1030.56H1303.94L1235.53 614.423H1219.93L1199.53 1030.56H1161.93L1209.53 46.9623H1255.14C1281.94 46.9623 1310.74 48.2667 1332.74 92.6199C1355.54 140.887 1365.54 233.507 1360.74 327.431C1353.94 468.318 1319.54 585.723 1275.14 602.682ZM1241.94 156.541L1224.73 512.671H1236.74C1275.14 512.671 1317.94 489.19 1325.54 332.649C1332.74 178.717 1289.14 156.541 1251.94 156.541H1241.94Z" fill="#313131"/>
<path d="M1572.34 784.009H1433.93L1387.53 1030.56H1347.13L1540.74 5.21804L1635.14 1030.56H1594.74L1572.34 784.009ZM1562.34 671.821L1527.94 273.946L1455.13 671.821H1562.34Z" fill="#313131"/>
<path d="M1866 174.804L1833.2 233.507C1824.8 172.195 1812 140.887 1789.2 140.887C1765.2 140.887 1736.39 194.371 1731.99 280.469C1728.39 357.435 1749.59 397.875 1767.2 421.356L1787.6 448.75C1827.6 503.54 1856 580.505 1848 744.873C1839.2 923.591 1790.4 1051.43 1736.39 1051.43C1687.59 1051.43 1655.59 934.027 1656.79 776.181L1695.99 750.091C1690.39 858.365 1712.79 936.636 1745.19 936.636C1777.6 936.636 1805.2 847.929 1810.4 744.873C1815.6 639.208 1791.6 593.551 1767.2 558.329L1747.99 529.63C1715.99 481.363 1687.59 417.442 1694.39 280.469C1701.99 121.319 1749.99 26.0901 1795.6 26.0901C1829.2 26.0901 1854 79.5749 1866 174.804Z" fill="#313131"/>
</svg>
