<?xml version="1.0" encoding="UTF-8"?>
<svg id="Capa_1" data-name="Capa 1" xmlns="http://www.w3.org/2000/svg" viewBox="0 0 124.43 61.34">
  <defs>
    <style>
      .cls-1 {
        fill: #1d1d1b;
      }
    </style>
  </defs>
  <path class="cls-1" d="m8.35,52.48h-2.29L10.4,9.94h2.26l-4.31,42.54Z"/>
  <path class="cls-1" d="m20.04,52.48h-3.2l.05-38.5-3.62,38.5h-2.21L15.44,9.94h3.14l.05,38.56,3.59-38.56h2.18l-4.37,42.54Z"/>
  <path class="cls-1" d="m34.59,14.7h-5.67l-1.25,12.53h5.01l-.48,4.64h-5.01l-2.11,20.6h-2.29l4.34-42.54h7.94l-.48,4.76Z"/>
  <path class="cls-1" d="m44.23,22.05l-2.16,20.85c-.29,2.95-.69,5.06-1.2,6.57-.77,2.35-2.02,3.49-3.7,3.49-2.77,0-4.34-2.77-4.34-7.53,0-1.39.08-2.65.32-4.94l2.16-20.85c.72-7.05,2.32-10.24,5.06-10.24s4.15,2.89,4.15,7.71c0,1.39-.08,2.83-.29,4.94Zm-3.99-8.2c-.8,0-1.41.6-1.84,1.81-.34.96-.53,2.23-.8,4.7l-2.16,20.97c-.13,1.27-.21,2.47-.21,3.37,0,2.53.72,3.92,1.97,3.92,1.33,0,2.05-1.75,2.5-6.09l2.18-20.72c.21-2.05.29-3.01.29-3.98,0-2.59-.69-3.98-1.94-3.98Z"/>
  <path class="cls-1" d="m54.01,30.24c-.59,1.69-1.38,2.71-2.48,3.13l1.49,19.1h-2.32l-1.3-18.68h-1.78l-1.92,18.68h-2.21l4.34-42.54h3.43c1.97,0,2.82.54,3.54,2.05.59,1.32.85,3.07.85,5.85,0,4.58-.67,9.64-1.65,12.41Zm-1.09-14.16c-.35-1.02-.85-1.32-2.34-1.32h-1.01l-1.52,14.88h1.07c2.02,0,2.85-.72,3.33-2.83.48-2.17.83-5.42.83-7.83,0-1.39-.08-2.17-.35-2.89Z"/>
  <path class="cls-1" d="m66.8,52.48h-2.1l4.18-38.5-6.79,38.5h-2.79l1.04-38.5-3.65,38.5h-2.18l4.34-42.54h3.43l-1.14,37.96,6.55-37.96h3.46l-4.34,42.54Z"/>
  <path class="cls-1" d="m77.64,52.48h-2.32l.26-7.95h-3.49l-1.39,7.95h-2.45l7.61-42.54h3.2l-1.44,42.54Zm-4.66-12.89h2.79l1.04-23.56-3.83,23.56Z"/>
  <path class="cls-1" d="m90.96,20.48l-.29,2.77h-2.18l.24-2.17c.16-1.57.27-2.95.27-3.98,0-2.17-.61-3.43-1.62-3.43-.67,0-1.31.6-1.7,1.51-.4.9-.75,2.35-.98,3.86-.19,1.2-.48,3.62-.61,5l-1.73,17.77c-.11,1.09-.16,2.05-.16,2.71,0,2.77.61,4.1,1.84,4.1.85,0,1.52-.72,1.92-2.11.32-1.14.56-2.95.88-5.84l.35-3.13h2.18l-.24,2.17c-.03.24-.11,1.02-.26,2.35-.13,1.2-.24,1.99-.29,2.41-.26,1.93-.67,3.8-1.06,5-.75,2.35-2.13,3.62-3.83,3.62-2.4,0-3.84-2.95-3.84-7.95,0-1.32.11-3.01.24-4.34l1.76-17.11c.43-4.16.85-6.99,1.41-8.98,1.01-3.67,2.45-5.42,4.45-5.42,2.24,0,3.59,2.47,3.59,6.45,0,1.2-.13,3.13-.29,4.76Z"/>
  <path class="cls-1" d="m91.98,52.48h-2.29l4.34-42.54h2.26l-4.31,42.54Z"/>
  <path class="cls-1" d="m106.68,22.05l-2.16,20.85c-.29,2.95-.69,5.06-1.2,6.57-.77,2.35-2.02,3.49-3.7,3.49-2.77,0-4.34-2.77-4.34-7.53,0-1.39.08-2.65.32-4.94l2.16-20.85c.72-7.05,2.32-10.24,5.06-10.24s4.15,2.89,4.15,7.71c0,1.39-.08,2.83-.29,4.94Zm-3.99-8.2c-.8,0-1.41.6-1.84,1.81-.34.96-.53,2.23-.8,4.7l-2.16,20.97c-.13,1.27-.21,2.47-.21,3.37,0,2.53.72,3.92,1.97,3.92,1.33,0,2.05-1.75,2.5-6.09l2.18-20.72c.21-2.05.29-3.01.29-3.98,0-2.59-.69-3.98-1.94-3.98Zm.69-7.41h-1.7l2.08-6.45h2.9l-3.28,6.45Z"/>
  <path class="cls-1" d="m114.91,52.48h-3.2l.05-38.5-3.62,38.5h-2.21l4.37-42.54h3.14l.05,38.56,3.59-38.56h2.18l-4.37,42.54Z"/>
</svg>