<svg width="1006" height="438" viewBox="0 0 1006 438" fill="none" xmlns="http://www.w3.org/2000/svg">
<path d="M160.124 0.647291L1006 0L845.876 438H0L160.124 0.647291Z" fill="black"/>
<path d="M314.199 155.382L311.119 166.289H287.045L269.129 237.887C261.011 269.491 253.173 293.823 245.055 311.163C233.577 335.495 221.26 352.276 208.103 361.505C198.025 368.497 187.948 372.133 177.87 372.133C171.432 372.133 165.833 370.175 161.074 366.26C157.715 363.463 156.035 360.107 156.035 355.632C156.035 352.276 157.435 349.2 160.234 346.403C163.034 343.606 166.393 342.487 170.592 342.487C173.671 342.487 175.911 343.326 178.15 345.284C180.39 347.242 181.229 349.199 181.229 351.717C181.229 354.234 180.11 356.471 177.87 358.429C176.191 359.827 175.351 361.226 175.351 361.785C175.351 362.904 175.631 363.463 176.47 364.022C177.59 364.862 178.99 365.141 180.949 365.141C185.708 365.141 190.467 363.743 195.786 360.666C201.105 357.59 205.584 353.395 209.783 347.521C213.982 341.648 217.621 333.258 221.26 322.071C222.66 317.596 226.859 302.213 233.577 276.763L262.131 165.73H233.577L235.817 154.822C244.775 154.822 251.213 154.263 254.852 152.865C258.492 151.466 261.851 149.229 264.65 145.593C267.449 141.957 271.649 135.525 276.407 125.736C282.846 112.591 289.005 102.522 294.883 95.2507C303.001 85.4619 311.399 78.1903 320.357 73.4357C329.315 68.6812 337.713 66.1641 345.551 66.1641C353.95 66.1641 360.668 68.4015 365.427 72.5967C370.186 76.7919 372.985 81.2667 372.985 86.301C372.985 90.2165 371.865 93.2929 369.346 96.0897C366.827 98.8865 363.467 100.005 359.548 100.005C356.189 100.005 353.39 98.8865 351.15 96.9288C348.911 94.971 348.071 92.7336 348.071 89.9368C348.071 88.2587 348.911 86.0213 350.31 83.5042C351.71 80.9871 352.55 79.309 352.55 78.4699C352.55 77.0715 351.99 75.6731 351.15 75.1138C349.751 73.9951 347.791 73.4357 344.992 73.4357C337.993 73.4357 331.835 75.6732 326.516 79.8683C319.238 85.7416 312.519 94.6914 306.92 106.997C303.841 113.43 298.522 129.372 290.684 155.102H314.759L314.199 155.382Z" fill="white"/>
<path d="M465.644 151.467L433.732 262.499L430.093 277.322C429.813 278.721 429.533 279.839 429.533 280.958C429.533 282.636 430.093 284.314 431.212 285.433C432.052 286.552 433.172 286.831 434.572 286.831C435.971 286.831 437.931 285.992 440.17 284.314C444.369 281.238 450.248 274.525 457.246 264.737L462.845 268.652C455.287 280.119 447.449 288.789 439.61 294.662C431.772 300.536 424.214 303.612 417.495 303.612C412.737 303.612 409.377 302.493 406.858 299.976C404.339 297.459 403.219 294.103 403.219 289.628C403.219 284.314 404.339 277.322 406.858 268.373L410.217 256.067C395.94 274.805 382.783 287.67 370.746 295.222C362.068 300.536 353.67 303.332 345.272 303.332C336.874 303.332 330.436 299.976 324.557 293.544C318.678 287.111 315.879 277.882 315.879 266.135C315.879 248.795 321.198 230.336 331.555 211.038C341.913 191.74 355.35 176.358 371.306 164.612C383.903 155.382 395.661 150.907 406.858 150.907C413.576 150.907 419.175 152.585 423.374 156.221C427.573 159.857 431.212 165.451 433.452 173.561L439.33 154.823L465.364 150.907L465.644 151.467ZM407.138 159.857C400.139 159.857 392.581 163.213 384.743 169.646C373.546 178.875 363.748 192.579 355.07 211.038C346.392 229.497 341.913 245.718 341.913 260.541C341.913 268.093 343.872 273.966 347.512 278.161C351.151 282.356 355.63 284.594 360.389 284.594C372.426 284.594 385.303 275.924 399.3 258.304C418.055 234.811 427.293 211.038 427.293 186.426C427.293 177.197 425.614 170.485 421.974 166.29C418.335 162.094 413.576 160.137 407.138 160.137V159.857Z" fill="white"/>
<path d="M633.886 155.381L605.333 252.989C601.134 267.533 598.894 276.762 598.894 280.398C598.894 282.356 599.174 283.754 600.014 284.873C600.854 285.992 601.693 286.271 602.813 286.271C604.773 286.271 606.732 285.432 608.972 283.754C611.211 282.076 616.81 275.364 626.048 263.617L631.087 267.253C622.409 280.957 613.731 291.026 604.493 297.458C598.614 301.654 592.735 303.611 587.137 303.611C582.938 303.611 579.578 302.493 577.059 299.975C574.54 297.458 573.42 294.382 573.42 290.746C573.42 287.11 574.26 282.076 575.659 275.923C577.339 267.812 582.378 250.193 590.496 223.064C572.02 253.549 556.344 274.525 543.747 286.271C531.15 298.018 519.672 303.611 508.755 303.611C503.716 303.611 499.517 301.933 495.878 298.297C492.239 294.662 490.559 290.466 490.559 285.153C490.559 277.042 493.078 264.456 497.837 247.396L512.114 196.774C515.473 184.748 517.433 177.196 517.433 174.12C517.433 172.721 516.873 171.603 516.033 170.764C515.193 169.925 514.074 169.365 512.954 169.365C510.714 169.365 508.475 170.204 505.955 171.882C503.436 173.56 498.397 179.713 490.279 190.062L485.24 186.426C493.358 173.84 502.036 164.331 511.274 158.458C518.273 153.703 524.711 151.466 530.59 151.466C534.509 151.466 537.868 152.864 540.388 155.381C542.907 157.898 544.307 161.255 544.307 165.17C544.307 171.043 542.067 181.671 537.868 196.774L522.472 249.633C518.273 264.177 516.033 273.126 516.033 277.042C516.033 279 516.593 280.678 517.993 282.076C519.392 283.474 521.072 284.034 523.591 284.034C527.231 284.034 531.989 282.356 537.588 278.72C543.187 275.084 551.025 266.973 560.823 254.667C570.621 242.362 578.459 230.615 584.897 219.708C591.336 208.8 597.774 191.46 605.053 167.967L608.692 155.381H633.606H633.886Z" fill="white"/>
<path d="M702.19 151.466C707.508 157.06 711.707 162.933 714.227 168.527C716.186 172.442 719.546 182.79 724.025 199.571L738.581 178.036C742.5 172.722 746.979 167.688 752.578 162.933C758.177 158.179 762.936 154.822 767.135 153.144C769.654 152.026 772.733 151.466 775.813 151.466C780.572 151.466 784.211 152.585 787.01 155.102C789.809 157.619 791.209 160.696 791.209 164.331C791.209 168.527 790.369 171.323 788.69 172.722C785.61 175.519 782.251 176.917 778.052 176.917C775.813 176.917 773.293 176.358 770.774 175.519C765.735 173.841 762.096 173.001 760.416 173.001C757.897 173.001 754.538 174.4 751.178 177.476C744.46 183.07 736.342 194.257 726.824 210.479L740.261 266.974C742.22 275.644 744.18 280.678 745.58 282.356C746.979 284.034 748.379 284.873 749.779 284.873C752.018 284.873 754.817 283.755 757.897 281.237C763.775 276.203 769.094 269.771 773.293 261.66L779.172 264.736C772.173 277.602 763.495 288.229 752.858 296.899C746.979 301.654 741.661 304.171 737.741 304.171C731.583 304.171 726.824 300.815 723.185 293.823C720.945 289.628 716.186 271.169 708.908 238.726C691.832 268.372 678.115 287.39 668.038 295.781C661.319 301.374 654.881 303.891 648.722 303.891C644.243 303.891 640.324 302.213 636.685 299.137C634.165 296.62 632.766 293.543 632.766 289.348C632.766 285.712 633.885 282.636 636.405 280.398C638.924 278.161 641.724 276.762 645.363 276.762C649.002 276.762 652.641 278.441 656.56 282.076C659.359 284.594 661.599 285.712 662.999 285.712C664.398 285.712 666.078 284.873 668.038 283.195C673.076 279 680.075 270.05 689.033 256.346C697.991 242.642 703.589 232.573 706.389 226.42C699.67 199.851 696.031 185.867 695.471 184.189C692.952 177.197 689.593 172.162 685.673 169.086C681.754 166.01 675.596 164.611 667.758 164.611C665.238 164.611 662.439 164.611 659.08 164.891V159.018L702.749 151.187L702.19 151.466Z" fill="white"/>
</svg>
