<?xml version="1.0" encoding="UTF-8"?>
<svg id="Capa_1" data-name="Capa 1" xmlns="http://www.w3.org/2000/svg" viewBox="0 0 770.32 61.34">
  <defs>
    <style>
      .cls-1 {
        fill: #1d1d1b;
      }
    </style>
  </defs>
  <path class="cls-1" d="m13.57,23.89,6.23,19.47l3.89-11.94-10.12-7.53h12.46l4.15-11.94,3.89,11.94h12.72l-10.38,7.53,3.89,11.94-10.12-7.27-10.38,7.27Z"/>
  <path class="cls-1" d="m46.79,23.89,6.23,19.47l3.89-11.94-10.12-7.53h12.46l4.15-11.94,3.89,11.94h12.72l-10.38,7.53,3.89,11.94-10.12-7.27-10.38,7.27Z"/>
  <path class="cls-1" d="m80.01,23.89,6.23,19.47l3.89-11.94-10.12-7.53h12.46l4.15-11.94,3.89,11.94h12.72l-10.38,7.53,3.89,11.94-10.12-7.27-10.38,7.27Z"/>
  <path class="cls-1" d="m113.24,23.89,6.23,19.47l3.89-11.94-10.12-7.53h12.46l4.15-11.94,3.89,11.94h12.72l-10.38,7.53,3.89,11.94-10.12-7.27-10.38,7.27Z"/>
  <path class="cls-1" d="m146.46,23.89,6.23,19.47l3.89-11.94-10.12-7.53h12.46l4.15-11.94,3.89,11.94h12.72l-10.38,7.53,3.89,11.94-10.12-7.27-10.38,7.27Z"/>
  <path class="cls-1" d="m179.68,23.89,6.23,19.47l3.89-11.94-10.12-7.53h12.46l4.15-11.94,3.89,11.94h12.72l-10.38,7.53,3.89,11.94-10.12-7.27-10.38,7.27Z"/>
  <path class="cls-1" d="m212.9,23.89,6.23,19.47l3.89-11.94-10.12-7.53h12.46l4.15-11.94,3.89,11.94h12.72l-10.38,7.53,3.89,11.94-10.12-7.27-10.38,7.27Z"/>
  <path class="cls-1" d="m246.12,23.89,6.23,19.47l3.89-11.94-10.12-7.53h12.46l4.15-11.94,3.89,11.94h12.72l-10.38,7.53,3.89,11.94-10.12-7.27-10.38,7.27Z"/>
  <path class="cls-1" d="m279.34,23.89,6.23,19.47l3.89-11.94-10.12-7.53h12.46l4.15-11.94,3.89,11.94h12.72l-10.38,7.53,3.89,11.94-10.12-7.27-10.38,7.27Z"/>
  <path class="cls-1" d="m312.57,23.89,6.23,19.47l3.89-11.94-10.12-7.53h12.46l4.15-11.94,3.89,11.94h12.72l-10.38,7.53,3.89,11.94-10.12-7.27-10.38,7.27Z"/>
  <path class="cls-1" d="m345.79,23.89,6.23,19.47l3.89-11.94-10.12-7.53h12.46l4.15-11.94,3.89,11.94h12.72l-10.38,7.53,3.89,11.94-10.12-7.27-10.38,7.27Z"/>
  <path class="cls-1" d="m379.01,23.89,6.23,19.47l3.89-11.94-10.12-7.53h12.46l4.15-11.94,3.89,11.94h12.72l-10.38,7.53,3.89,11.94-10.12-7.27-10.38,7.27Z"/>
  <path class="cls-1" d="m412.23,23.89,6.23,19.47l3.89-11.94-10.12-7.53h12.46l4.15-11.94,3.89,11.94h12.72l-10.38,7.53,3.89,11.94-10.12-7.27-10.38,7.27Z"/>
  <path class="cls-1" d="m445.45,23.89,6.23,19.47l3.89-11.94-10.12-7.53h12.46l4.15-11.94,3.89,11.94h12.72l-10.38,7.53,3.89,11.94-10.12-7.27-10.38,7.27Z"/>
  <path class="cls-1" d="m478.68,23.89,6.23,19.47l3.89-11.94-10.12-7.53h12.46l4.15-11.94,3.89,11.94h12.72l-10.38,7.53,3.89,11.94-10.12-7.27-10.38,7.27Z"/>
  <path class="cls-1" d="m511.9,23.89,6.23,19.47l3.89-11.94-10.12-7.53h12.46l4.15-11.94,3.89,11.94h12.72l-10.38,7.53,3.89,11.94-10.12-7.27-10.38,7.27Z"/>
  <path class="cls-1" d="m545.12,23.89,6.23,19.47l3.89-11.94-10.12-7.53h12.46l4.15-11.94,3.89,11.94h12.72l-10.38,7.53,3.89,11.94-10.12-7.27-10.38,7.27Z"/>
  <path class="cls-1" d="m578.34,23.89,6.23,19.47l3.89-11.94-10.12-7.53h12.46l4.15-11.94,3.89,11.94h12.72l-10.38,7.53,3.89,11.94-10.12-7.27-10.38,7.27Z"/>
  <path class="cls-1" d="m611.56,23.89,6.23,19.47l3.89-11.94-10.12-7.53h12.46l4.15-11.94,3.89,11.94h12.72l-10.38,7.53,3.89,11.94-10.12-7.27-10.38,7.27Z"/>
  <path class="cls-1" d="m644.79,23.89,6.23,19.47l3.89-11.94-10.12-7.53h12.46l4.15-11.94,3.89,11.94h12.72l-10.38,7.53,3.89,11.94-10.12-7.27-10.38,7.27Z"/>
  <path class="cls-1" d="m678.01,23.89,6.23,19.47l3.89-11.94-10.12-7.53h12.46l4.15-11.94,3.89,11.94h12.72l-10.38,7.53,3.89,11.94-10.12-7.27-10.38,7.27Z"/>
  <path class="cls-1" d="m711.23,23.89,6.23,19.47l3.89-11.94-10.12-7.53h12.46l4.15-11.94,3.89,11.94h12.72l-10.38,7.53,3.89,11.94-10.12-7.27-10.38,7.27Z"/>
</svg>